<svg height="119" viewBox="0 0 1280 119" width="1280" xmlns="http://www.w3.org/2000/svg"><g fill="#e9f7fb"><path d="m1280 119.75h-1280v-67.39c0-1.74 17.63-1.44 18.86-1.36a47.71 47.71 0 0 1 16.91 4.6c5.27 2.6 8.77 6.75 12.79 10.78a28.79 28.79 0 0 0 16.28 7.82c11.16 1.49 17.68-5.35 27.44-8.69a23.22 23.22 0 0 1 17.39 1c3.18 1.53 6 3.79 9.22 5.14 5 2.08 10.74 1.86 15.94.35 6.66-1.94 12.37-6.22 19.05-8.22 10.3-3.08 18.85.72 26.69 7.26 0 0 13 10.81 30-4.88 14.82-13.71 27.69-4 43.22 2 17 6.53 34.17 4 49.82-5 0 0 25-21.67 82 1 0 0 43 14.77 80 2 10.27-3.55 19.56-7.61 30.7-8.42 15.83-1.15 30.27 5.69 45 10.19a101.54 101.54 0 0 0 48.24 2.9c18.76-3.29 42-9.44 58.05-20 20.28-13.31 49.19-16.72 72.76-16.44 28.54.34 53.17 8.94 80 17.16 29.78 9.14 57.93 8.47 88 .45 28.14-7.5 57.11-19.79 86.87-16.16 15.05 1.83 28.14 10 42.88 12.82 23.61 4.53 39.2-15.19 60-21.57 24-7.35 48.12.11 66.44 16.42 15.72 14 47.57 13.31 60-4.92 0 0 28.84-42.35 75.42 0z"/><path d="m62.34 33.9-11.2-25.74a3.48 3.48 0 0 0 -1.71-1.79 3.57 3.57 0 0 0 -1.2-.37 3.51 3.51 0 0 0 -3.59 2.12l-11.2 25.78a15.63 15.63 0 0 0 11.82 21.7v15.87a2.63 2.63 0 1 0 5.25 0v-7.65-14.31a1.42 1.42 0 0 1 2.83 0v5.38a15 15 0 0 0 2.16-1l.11-.06c7.013-3.943 9.917-12.543 6.73-19.93zm136.9 12.98-9.24-21.28a2.88 2.88 0 0 0 -1.41-1.48 3 3 0 0 0 -1-.27 2.91 2.91 0 0 0 -3 1.75l-9.26 21.28a12.92 12.92 0 0 0 9.78 17.95v13.17a2.17 2.17 0 1 0 4.34 0v-6.37-11.84a1.17 1.17 0 0 1 2.34 0v4.45a12.39 12.39 0 0 0 1.79-.79l.09-.05a13 13 0 0 0 5.57-16.52zm146.76-18.97-8.82-20.21a2.73 2.73 0 0 0 -1.34-1.4 2.8 2.8 0 0 0 -.94-.26 2.76 2.76 0 0 0 -2.82 1.66l-8.79 20.2a12.27 12.27 0 0 0 9.28 17v12.49a2.06 2.06 0 1 0 4.12 0v-6-11.23a1.11 1.11 0 0 1 2.22 0v4.22a11.76 11.76 0 0 0 1.7-.75h.09a12.34 12.34 0 0 0 5.3-15.72zm-77.55 24.03-6.45-14.94a2 2 0 0 0 -1-1 2.07 2.07 0 0 0 -.7-.19 2 2 0 0 0 -2.12 1.19l-6.5 14.94a9.07 9.07 0 0 0 6.87 12.6v9.21a1.52 1.52 0 1 0 3 0v-4.45-8.31a.82.82 0 0 1 1.64 0v3.12a8.7 8.7 0 0 0 1.25-.55h.07a9.13 9.13 0 0 0 3.94-11.62zm196.83-10.16-9.11-20.94a2.83 2.83 0 0 0 -1.39-1.45 2.9 2.9 0 0 0 -1-.27 2.86 2.86 0 0 0 -2.92 1.72l-9.11 20.94a12.71 12.71 0 0 0 9.62 17.66v12.9a2.14 2.14 0 1 0 4.27 0v-6.22-11.64a1.15 1.15 0 0 1 2.3 0v4.38a12.19 12.19 0 0 0 1.76-.78l.09-.05a12.79 12.79 0 0 0 5.49-16.25zm-73.98.86-7.55-17.36a2.35 2.35 0 0 0 -1.15-1.21 2.41 2.41 0 0 0 -.81-.22 2.37 2.37 0 0 0 -2.42 1.43l-7.57 17.36a10.54 10.54 0 0 0 8 14.64v10.72a1.77 1.77 0 0 0 3.54 0v-5.18-9.65a1 1 0 0 1 1.91 0v3.63c.503-.175.99-.389 1.46-.64h.08a10.61 10.61 0 0 0 4.51-13.52zm-257.58-9.83-13.19-30.3a4.09 4.09 0 0 0 -2-2.1 4.2 4.2 0 0 0 -1.43-.41 4.14 4.14 0 0 0 -4.23 2.49l-13.18 30.32a18.4 18.4 0 0 0 13.92 25.55v18.64a3.09 3.09 0 1 0 6.18 0v-9-16.85a1.67 1.67 0 1 1 3.34 0v6.33a17.64 17.64 0 0 0 2.54-1.13l.13-.07c8.257-4.644 11.675-14.773 7.92-23.47z"/></g></svg>